:SAMPLES-PER-SECOND 30
:FULLY-SPECIFIED
:DEGREES
241
root  35.10379641 36.48915328 -14.90229058 9.875483513 5.238154411 3.937243223
lowerback  -8.620919228 1.213590026 0.715967834
upperback  -3.877439976 1.212010026 -3.825579882
thorax  0.914255023 0.3947220147 -4.257110119
lowerneck  -16.13559914 -2.460330009 -0.4207209945
upperneck  12.36450005 -4.421860218 6.301839828
head  6.577720165 -1.693320036 1.631060004
lclavicle  0 -4.497500157e-015 -2.743230041e-014
lhumerus  -43.69670105 26.54859924 68.83609772
lradius  -0.1144560277 -6.507048965e-006 27.68510056
lwrist  4.824992743e-007 -3.790274832e-007 -30.35079956
lhand  -4.427183576e-031 -37.09840012 -10.65120029
lfingers  90 7.125020027 -90
lthumb  94.90390496 -25.48038481 101.2790003
rclavicle  0 -4.497500157e-015 -2.743230041e-014
rhumerus  -10.63109875 -4.07392025 -58.17150116
rradius  -5.16745672e-007 2.214343908e-008 109.4150009
rwrist  1.380293725e-006 2.528095422e-007 179.9149933
rhand  -1.769391547e-031 3.770060062 -6.843760014
rfingers  -90 -7.125020027 -90
rthumb  -84.87085099 -9.089710175 -60.39591563
rfemur  -13.04702663 12.42593098 13.62056923
rtibia  -1.929216027 0.8686127067 22.64157677
rfoot  -1.61941433 -18.05458832 -41.25659943
rtoes  3.789607099 19.65214183 -101.1420873
lfemur  -10.93146038 -21.02390099 -19.18202782
ltibia  2.380978823 0.9447703958 15.83282757
lfoot  0.958447516 -27.83504486 33.83746719
ltoes  -8.671977748 -18.09189704 -116.1577106
242
root  35.10418088 36.49051096 -14.90406727 9.80103302 5.153802395 3.932540655
lowerback  -8.630700111 1.175520062 0.7363971472
upperback  -3.876922131 1.160529971 -3.781369925
thorax  0.911277771 0.3696950078 -4.227250099
lowerneck  -16.17320061 -2.404819965 -0.4803200066
upperneck  12.40939999 -4.332900047 6.294889927
head  6.596169949 -1.650939822 1.647760034
lclavicle  0 -4.497500157e-015 -2.743230041e-014
lhumerus  -43.68799973 26.30369949 69.04750061
lradius  -0.1142257228 -6.507048965e-006 27.76840019
lwrist  4.824992743e-007 -3.790274832e-007 -30.02949905
lhand  -4.434880909e-031 -37.22969818 -10.60229969
lfingers  90 7.125020027 -90
lthumb  94.95468583 -25.42763267 101.4148037
rclavicle  0 -4.497500157e-015 -2.743230041e-014
rhumerus  -12.42539978 -4.217359543 -58.81779861
rradius  -5.16745672e-007 2.214343908e-008 109.8160019
rwrist  1.380293725e-006 2.528095422e-007 -179.5890045
rhand  -1.769295038e-031 3.722330093 -6.640019894
rfingers  -90 -7.125020027 -90
rthumb  -84.78023674 -9.264080233 -60.42619862
rfemur  -12.95037651 12.47584152 13.6231041
rtibia  -1.917603493 0.8654574752 22.58073425
rfoot  -1.57394731 -18.04561043 -41.21615982
rtoes  3.804322186 19.64940691 -101.1858449
lfemur  -10.87348175 -21.05593681 -19.20684433
ltibia  2.351825714 0.8839608431 15.86941814
lfoot  0.9474377036 -27.75330734 33.90236282
ltoes  -8.686572381 -18.08507616 -116.2047165
243
root  35.1045203 36.49136701 -14.90556912 9.747152328 5.063803196 3.914515257
lowerback  -8.619269371 1.138339996 0.7594447136
upperback  -3.876393795 1.110800028 -3.747090101
thorax  0.9059792161 0.3457759917 -4.20923996
lowerneck  -16.18009949 -2.302999973 -0.4326210022
upperneck  12.42679977 -4.197619915 6.246119976
head  6.59740591 -1.586437464 1.637459755
lclavicle  0 -4.497500157e-015 -2.743230041e-014
lhumerus  -43.67850113 26.20400047 69.18730164
lradius  -0.1139928773 -6.507048965e-006 27.81669998
lwrist  4.824992743e-007 -3.790274832e-007 -29.93630028
lhand  -4.412428216e-031 -36.84429932 -10.50650024
lfingers  90 7.125020027 -90
lthumb  94.75432895 -25.34737606 100.9941235
rclavicle  0 -4.497500157e-015 -2.743230041e-014
rhumerus  -14.20359898 -4.471901417 -59.46360016
rradius  -5.16745672e-007 2.214343908e-008 110.151001
rwrist  1.380293725e-006 2.528095422e-007 -179.5700073
rhand  -1.769298394e-031 3.723999977 -6.533070087
rfingers  -90 -7.125020027 -90
rthumb  -84.72635243 -9.357163753 -60.41590828
rfemur  -12.87293148 12.51748657 13.62523746
rtibia  -1.897104502 0.8463600278 22.50499916
rfoot  -1.547037482 -18.08061218 -41.21700668
rtoes  3.820423852 19.64640163 -101.2337325
lfemur  -10.8843708 -21.07292747 -19.18932533
ltibia  2.287900448 0.8064610362 15.97068024
lfoot  0.9162589312 -27.654459 33.90819931
ltoes  -8.685055204 -18.08578589 -116.1998292
244
root  35.10611827 36.49377297 -14.90683818 9.673948288 4.982398033 3.882822752
lowerback  -8.633741379 1.089829922 0.7293451428
upperback  -3.873820066 1.048900008 -3.700900078
thorax  0.902345717 0.315903008 -4.149549961
lowerneck  -16.1996994 -2.219480038 -0.4528680146
upperneck  12.45009995 -4.077809811 6.234129906
head  6.610725403 -1.529817224 1.644211292
lclavicle  0 -4.497500157e-015 -2.743230041e-014
lhumerus  -43.69979858 26.21719933 69.24060059
lradius  -0.1137574762 -6.507048965e-006 27.84329987
lwrist  4.824992743e-007 -3.790274832e-007 -30.06380081
lhand  -4.408620093e-031 -36.77819824 -10.44270039
lfingers  90 7.125020027 -90
lthumb  94.71023339 -25.28705114 100.9178446
rclavicle  0 -4.497500157e-015 -2.743230041e-014
rhumerus  -16.0163002 -4.716370583 -60.020401
rradius  -5.16745672e-007 2.214343908e-008 110.4459991
rwrist  1.380293725e-006 2.528095422e-007 -179.3339996
rhand  -1.769276438e-031 3.713059902 -6.609200001
rfingers  -90 -7.125020027 -90
rthumb  -84.76703309 -9.290375165 -60.4328168
rfemur  -12.781147 12.53069019 13.64548397
rtibia  -1.866689324 0.8467968702 22.43667603
rfoot  -1.507840514 -18.11054802 -41.16770172
rtoes  3.814760155 19.64746023 -101.2168874
lfemur  -10.84816933 -21.04235458 -19.16853333
ltibia  2.233873844 0.7793115377 16.03417206
lfoot  0.8910915852 -27.65372276 33.91113281
ltoes  -8.636013038 -18.10864396 -116.0419498
245
root  35.10807969 36.49212094 -14.90832502 9.633419037 4.88462019 3.863551378
lowerback  -8.615449905 1.048179984 0.712759614
upperback  -3.865799904 0.9970110059 -3.647160053
thorax  0.9033709764 0.2918980122 -4.088850021
lowerneck  -16.23789978 -2.162960052 -0.4932520092
upperneck  12.4975996 -3.985610008 6.194200039
head  6.620349884 -1.486260056 1.654219985
lclavicle  0 -4.497500157e-015 -2.743230041e-014
lhumerus  -43.72750092 26.30669975 69.26959991
lradius  -0.1135195345 -6.507048965e-006 27.84009933
lwrist  4.824992743e-007 -3.790274832e-007 -30.19669914
lhand  -4.411482276e-031 -36.82789993 -10.42749977
lfingers  90 7.125020027 -90
lthumb  94.73009732 -25.27043971 100.9695475
rclavicle  0 -4.497500157e-015 -2.743230041e-014
rhumerus  -17.78730011 -5.142688751 -60.60440063
rradius  -5.16745672e-007 2.214343908e-008 110.6409988
rwrist  1.380293725e-006 2.528095422e-007 -179.4640045
rhand  -1.7689683e-031 3.555949926 -6.662799835
rfingers  -90 -7.125020027 -90
rthumb  -84.83104712 -9.23476954 -60.59055663
rfemur  -12.7602253 12.58145905 13.64507771
rtibia  -1.845539093 0.8755254149 22.43451881
rfoot  -1.481033564 -18.08976746 -41.09504318
rtoes  3.781161443 19.65370653 -101.1169754
lfemur  -10.79219055 -20.98703194 -19.17006111
ltibia  2.216587067 0.7677997947 16.01387024
lfoot  0.8680861592 -27.62862778 33.94081497
ltoes  -8.623854512 -18.11428585 -116.002838
246
root  35.10912798 36.49112071 -14.90990196 9.576929092 4.799314022 3.828629255
lowerback  -8.624191284 1.00560987 0.6993181705
upperback  -3.853569984 0.9435880184 -3.601520061
thorax  0.9158750176 0.2670280039 -4.038430214
lowerneck  -16.27350044 -2.103310108 -0.5806990266
upperneck  12.53269958 -3.8886199 6.215489864
head  6.636089802 -1.43945992 1.685559988
lclavicle  0 -4.497500157e-015 -2.743230041e-014
lhumerus  -43.75519943 26.45409966 69.27189636
lradius  -0.1132790446 -6.507048965e-006 27.8355999
lwrist  4.824992743e-007 -3.790274832e-007 -30.35490036
lhand  -4.41163801e-031 -36.83060074 -10.43150043
lfingers  90 7.125020027 -90
lthumb  94.73217371 -25.27425092 100.9727588
rclavicle  0 -4.497500157e-015 -2.743230041e-014
rhumerus  -19.46080017 -5.376761436 -61.03210068
rradius  -5.16745672e-007 2.214343908e-008 110.7549973
rwrist  1.380293725e-006 2.528095422e-007 -179.503006
rhand  -1.769033692e-031 3.589869976 -6.454050064
rfingers  -90 -7.125020027 -90
rthumb  -84.71902335 -9.418458689 -60.54056275
rfemur  -12.70680141 12.64323425 13.6584053
rtibia  -1.807040215 0.9050579071 22.40820503
rfoot  -1.467530727 -18.10154343 -41.07736588
rtoes  3.774924895 19.65485963 -101.0984333
lfemur  -10.6907568 -20.90678978 -19.16366577
ltibia  2.211278439 0.798037827 15.95795059
lfoot  0.8729472756 -27.67870712 34.0278244
ltoes  -8.648619581 -18.10278367 -116.0825151
